<svg xmlns="http://www.w3.org/2000/svg" xmlns:xlink="http://www.w3.org/1999/xlink" viewBox="0 0 1393.4 500"><defs><style>.cls-1{fill:url(#linear-gradient);}.cls-2{fill:#fff;}</style><linearGradient id="linear-gradient" x1="68.93" y1="250" x2="365.27" y2="250" gradientUnits="userSpaceOnUse"><stop offset="0" stop-color="#db1d7a"/><stop offset="1" stop-color="#772a81"/></linearGradient></defs><g id="NFTY_Labs" data-name="NFTY Labs"><g id="ICON"><path class="cls-1" d="M365.27,250A147.2,147.2,0,0,1,336,338.4c-.52.73-1,1.46-1.59,2.14a149.16,149.16,0,0,1-13.2,14.92c-.3.34-.64.64-1,1a151,151,0,0,1-26.36,20.32c-.13.08-.3.17-.43.26a142.08,142.08,0,0,1-20.27,10.15c-.26.13-.56.22-.86.35a142.63,142.63,0,0,1-27.22,8c-1.24.26-2.48.47-3.73.64a145.49,145.49,0,0,1-24.21,2h-.3A147.86,147.86,0,0,1,114,356.44c-.34-.34-.69-.64-1-1a150.42,150.42,0,0,1-13.2-14.92c-.55-.68-1.07-1.41-1.58-2.14a147.92,147.92,0,0,1,.55-177.53c.3-.47.69-.94,1-1.41a141.47,141.47,0,0,1,13.89-15.56l.34-.34a147.93,147.93,0,0,1,26.32-20.32c.43-.26.81-.51,1.24-.73a142,142,0,0,1,20.32-10c.17-.08.38-.13.55-.21a146,146,0,0,1,28-8c1.59-.3,3.22-.55,4.8-.77a146.69,146.69,0,0,1,21.82-1.63h1.67a8.17,8.17,0,0,1,1.11.05,147.49,147.49,0,0,1,100.25,41.66l.35.34a140.36,140.36,0,0,1,13.88,15.56c.35.47.73.94,1,1.41A147,147,0,0,1,365.27,250Z"/><path class="cls-2" d="M217.1,402.32h-.3a151.69,151.69,0,0,1-105.68-42.88l-.33-.32c-.23-.21-.5-.48-.79-.79a155.06,155.06,0,0,1-13.44-15.2c-.63-.77-1.19-1.57-1.69-2.28a152.09,152.09,0,0,1,.52-182.38c.26-.39.52-.74.76-1.05l.31-.41.06-.09a145.36,145.36,0,0,1,14.27-16l.37-.37a152.87,152.87,0,0,1,27.06-20.89l.31-.19c.31-.19.66-.41,1.07-.62a145.77,145.77,0,0,1,20.69-10.21l.56-.22.1,0a150.24,150.24,0,0,1,28.79-8.24c1.55-.3,3.24-.57,5-.8a151.31,151.31,0,0,1,22.38-1.67h1.67a13.5,13.5,0,0,1,1.36,0A151.52,151.52,0,0,1,323,140.56l.36.37a144.34,144.34,0,0,1,14.27,16l.07.08.3.41c.24.32.51.67.77,1.06a152.09,152.09,0,0,1,.52,182.38c-.55.77-1.08,1.53-1.69,2.28a153.87,153.87,0,0,1-13.45,15.2c-.28.31-.56.57-.78.79l-.28.27-.06.06a154.89,154.89,0,0,1-27,20.85l-.36.21,0,0-.16.1A146.26,146.26,0,0,1,274.8,391c-.28.13-.53.23-.73.3l-.17.06-.08,0a147,147,0,0,1-28,8.19c-1.29.27-2.6.5-3.9.68A151.42,151.42,0,0,1,217.1,402.32ZM103.17,162c-.12.16-.24.33-.37.49s-.37.49-.48.66l-.19.28a143.73,143.73,0,0,0-.54,172.51l.07.09c.46.66.94,1.34,1.41,1.92l.07.09A144.5,144.5,0,0,0,116,352.49l.21.22c.12.14.25.26.38.39l.41.39A143.33,143.33,0,0,0,216.81,394h.29a141.84,141.84,0,0,0,23.52-2l.12,0c1.15-.16,2.32-.36,3.46-.6h.08a138.81,138.81,0,0,0,26.38-7.73c.18-.08.36-.14.54-.21l.35-.14a140,140,0,0,0,19.63-9.83l.35-.22,0,0,.17-.1a147.08,147.08,0,0,0,25.6-19.73l.38-.37a4.54,4.54,0,0,0,.38-.38l.21-.22A145.61,145.61,0,0,0,331.06,338l.07-.09c.45-.56.9-1.2,1.38-1.88l.1-.13a143.77,143.77,0,0,0-.54-172.51l-.2-.28c-.11-.17-.29-.41-.48-.66L331,162a136.24,136.24,0,0,0-13.44-15.06l-.38-.37a143.16,143.16,0,0,0-97.39-40.46l-.39,0H217.1a142.75,142.75,0,0,0-21.2,1.58c-1.66.22-3.2.47-4.64.74a141.7,141.7,0,0,0-27.12,7.76c-.23.1-.42.16-.56.21l-.09,0a137.47,137.47,0,0,0-19.72,9.73l-.29.16q-.28.15-.57.33l-.39.24A144.34,144.34,0,0,0,117,146.53l-.37.37A138.28,138.28,0,0,0,103.17,162Z"/><path class="cls-2" d="M267.29,249.25l68.1-88.38c-.3-.47-.68-.94-1-1.41a140.36,140.36,0,0,0-13.88-15.56l-27.56,35.83a8.63,8.63,0,0,1-13.67,0L219.88,101.9a8.17,8.17,0,0,0-1.11-.05H217.1a146.69,146.69,0,0,0-21.82,1.63l70.46,92.41A15.69,15.69,0,0,1,240.84,215L162.75,113.64c-.3-.39-.56-.77-.81-1.16a142,142,0,0,0-20.32,10L195.15,192a16.87,16.87,0,0,1-.3,21c-.17.26-.43.47-.6.73a16.84,16.84,0,0,1-26.74,0L113.72,143.9a140.45,140.45,0,0,0-13.89,15.56c-.34.47-.73.94-1,1.41l68.11,88.38L98.25,338.4c.51.73,1,1.46,1.58,2.14A150.42,150.42,0,0,0,113,355.46L141.92,318a8.6,8.6,0,0,1,13.63.05L216,396.86a11.54,11.54,0,0,1,.82,1.29h.3a145.49,145.49,0,0,0,24.21-2l-72.47-94.59a15.17,15.17,0,0,1,12-24.43,15,15,0,0,1,12,5.91l1.37,1.76c.05,0,.05,0,.05,0l78,101.07c.3.43.6.85.86,1.28A142.08,142.08,0,0,0,293.39,377L239,306.51a16.88,16.88,0,0,1,.3-21,8.89,8.89,0,0,1,.56-.73,16.84,16.84,0,0,1,26.74,0l54.52,70.68a149.16,149.16,0,0,0,13.2-14.92c.56-.68,1.07-1.41,1.59-2.14Zm-33.65,7.37-11.27,14.66a6.69,6.69,0,0,1-10.54,0l-11.28-14.66a12,12,0,0,1,0-14.7l11.28-14.66a6.69,6.69,0,0,1,10.54,0l11.27,14.66A12,12,0,0,1,233.64,256.62Z"/></g><path class="cls-2" d="M523.8,195.21h20.79V305.58H531.67v.16l-57.94-74.47v74.31H453V195.37H469.8l54,68.33Z"/><path class="cls-2" d="M563.64,305.58V195.52h79.19v20H584.42v30.07h55.26V264.8H584.42v40.78Z"/><path class="cls-2" d="M690.53,214.26H655.58V195.37h90.69v18.89h-35v91.32H690.53Z"/><path class="cls-2" d="M811.92,240.87l29.28-45.5h25v.94l-43.93,63.77v45.5H801.53v-45.5l-42.35-63.77v-.94H783.9Z"/><path class="cls-2" d="M928,195.37v91h56.68v19.21H907.17V195.37Z"/><path class="cls-2" d="M1083.82,284.8H1026.2l-9.45,20.78H994.24l49.44-110.21h22.67l49.44,110.21h-22.68ZM1055,218.5l-20.46,46.93h40.93Z"/><path class="cls-2" d="M1219.38,227.33c0,8.5-4.09,16.69-14.33,21.25,12.92,3.94,17.63,17.63,17.63,24.57,0,24.56-18.42,32.43-41.24,32.43h-52.28V195.37h52.28C1203.16,195.37,1219.38,205.13,1219.38,227.33Zm-69.75,12.27h31.81c13.06,0,17.31-5.51,17.31-11.8,0-5-4.09-13.54-17.31-13.54h-31.81Zm0,46.61h31.81c8.5,0,20.62-2.83,20.62-13.22,0-9.92-12.12-15.11-20.62-15.11h-31.81Z"/><path class="cls-2" d="M1308.65,222c-3.78-6.29-14.18-12.28-26.14-12.28-15.43,0-22.83,6.46-22.83,14.65,0,9.6,11.34,12.27,24.56,13.86,23,2.82,44.4,8.81,44.4,35.1,0,24.56-21.72,35.11-46.29,35.11-22.51,0-39.83-6.93-48-27.08l17.32-9c4.88,12.13,17.63,17.48,31,17.48,13.06,0,25.35-4.56,25.35-16.53,0-10.38-10.87-14.64-25.51-16.22-22.51-2.67-43.3-8.65-43.3-33.37,0-22.67,22.36-32,42.67-32.12,17.16,0,34.95,4.88,43.3,21.88Z"/><path class="cls-2" d="M523.8,195.21h20.79V305.58H531.67v.16l-57.94-74.47v74.31H453V195.37H469.8l54,68.33Z"/><path class="cls-2" d="M563.64,305.58V195.52h79.19v20H584.42v30.07h55.26V264.8H584.42v40.78Z"/><path class="cls-2" d="M690.53,214.26H655.58V195.37h90.69v18.89h-35v91.32H690.53Z"/><path class="cls-2" d="M811.92,240.87l29.28-45.5h25v.94l-43.93,63.77v45.5H801.53v-45.5l-42.35-63.77v-.94H783.9Z"/><path class="cls-2" d="M928,195.37v91h56.68v19.21H907.17V195.37Z"/><path class="cls-2" d="M1083.82,284.8H1026.2l-9.45,20.78H994.24l49.44-110.21h22.67l49.44,110.21h-22.68ZM1055,218.5l-20.46,46.93h40.93Z"/><path class="cls-2" d="M1219.38,227.33c0,8.5-4.09,16.69-14.33,21.25,12.92,3.94,17.63,17.63,17.63,24.57,0,24.56-18.42,32.43-41.24,32.43h-52.28V195.37h52.28C1203.16,195.37,1219.38,205.13,1219.38,227.33Zm-69.75,12.27h31.81c13.06,0,17.31-5.51,17.31-11.8,0-5-4.09-13.54-17.31-13.54h-31.81Zm0,46.61h31.81c8.5,0,20.62-2.83,20.62-13.22,0-9.92-12.12-15.11-20.62-15.11h-31.81Z"/><path class="cls-2" d="M1308.65,222c-3.78-6.29-14.18-12.28-26.14-12.28-15.43,0-22.83,6.46-22.83,14.65,0,9.6,11.34,12.27,24.56,13.86,23,2.82,44.4,8.81,44.4,35.1,0,24.56-21.72,35.11-46.29,35.11-22.51,0-39.83-6.93-48-27.08l17.32-9c4.88,12.13,17.63,17.48,31,17.48,13.06,0,25.35-4.56,25.35-16.53,0-10.38-10.87-14.64-25.51-16.22-22.51-2.67-43.3-8.65-43.3-33.37,0-22.67,22.36-32,42.67-32.12,17.16,0,34.95,4.88,43.3,21.88Z"/></g></svg>